<svg xmlns="http://www.w3.org/2000/svg" width="19.549" height="27.546" viewBox="0 0 19.549 27.546">
  <g id="active_address-icon" transform="translate(-493.171 -424.072)">
    <path id="Path_144" data-name="Path 144" d="M502.946,424.072h0a9.776,9.776,0,0,0-9.774,9.775,8.056,8.056,0,0,0,.468,2.664c1.99,5.755,9.307,15.107,9.307,15.107s7.316-9.352,9.306-15.107a8.055,8.055,0,0,0,.468-2.664A9.776,9.776,0,0,0,502.946,424.072Zm0,14.181a4.645,4.645,0,1,1,4.644-4.644A4.645,4.645,0,0,1,502.946,438.253Z" fill="#00afd0"/>
  </g>
</svg>
