<svg xmlns="http://www.w3.org/2000/svg" width="19.549" height="27.545" viewBox="0 0 19.549 27.545">
  <g id="address-icon" transform="translate(-389.887 -1991.448)">
    <path id="Path_86" data-name="Path 86" d="M399.662,1991.448h0a9.774,9.774,0,0,0-9.774,9.774,8.065,8.065,0,0,0,.468,2.665c1.99,5.754,9.306,15.106,9.306,15.106s7.317-9.352,9.307-15.106a8.065,8.065,0,0,0,.468-2.665A9.774,9.774,0,0,0,399.662,1991.448Zm0,14.18a4.644,4.644,0,1,1,4.645-4.644A4.644,4.644,0,0,1,399.661,2005.628Z" fill="#231815"/>
  </g>
</svg>
