<svg xmlns="http://www.w3.org/2000/svg" width="39.56" height="46.351" viewBox="0 0 39.56 46.351">
  <path id="check-icon" d="M1094,1027.516l-8.826-35.6a2.413,2.413,0,0,0-2.923-1.762l-8.51,2.11h-18.265a.965.965,0,0,0-.965.965v36.679a.965.965,0,0,0,.965.965h9.025l.924,3.727a2.418,2.418,0,0,0,2.924,1.762l23.889-5.923A2.416,2.416,0,0,0,1094,1027.516Zm-25.881,5.918c-.222-.9-8.37-33.764-8.593-34.664l22.954-5.69c.223.9,8.37,33.764,8.593,34.664Z" transform="translate(-1054.508 -990.081)" fill="#00afd0"/>
</svg>
