<svg xmlns="http://www.w3.org/2000/svg" width="24.529" height="28" viewBox="0 0 24.529 28">
  <g id="degree-icon" transform="translate(-1225.465 -424.294)">
    <g id="Group_61" data-name="Group 61">
      <path id="Path_146" data-name="Path 146" d="M1243.018,451.3h-16.562V425.286H1249v14.837Z" fill="#fff"/>
      <path id="Path_147" data-name="Path 147" d="M1243.018,452.294h-16.562a.992.992,0,0,1-.991-.992V425.286a.992.992,0,0,1,.991-.992H1249a.992.992,0,0,1,.992.992v14.837a.994.994,0,0,1-.118.468l-5.983,11.179A.992.992,0,0,1,1243.018,452.294Zm-15.57-1.984h14.977l5.585-10.436v-13.6h-20.562Z" fill="#262626"/>
    </g>
    <g id="Group_62" data-name="Group 62">
      <rect id="Rectangle_25" data-name="Rectangle 25" width="15.967" height="2.354" transform="translate(1229.746 432.641)" fill="#262626"/>
      <rect id="Rectangle_26" data-name="Rectangle 26" width="15.967" height="2.354" transform="translate(1229.746 428.575)" fill="#262626"/>
      <rect id="Rectangle_27" data-name="Rectangle 27" width="15.967" height="2.354" transform="translate(1229.746 437.013)" fill="#262626"/>
      <rect id="Rectangle_28" data-name="Rectangle 28" width="15.967" height="2.354" transform="translate(1229.746 441.386)" fill="#262626"/>
      <rect id="Rectangle_29" data-name="Rectangle 29" width="15.967" height="2.354" transform="translate(1229.746 445.758)" fill="#262626"/>
    </g>
    <g id="Group_63" data-name="Group 63">
      <path id="Path_148" data-name="Path 148" d="M1239.448,448.189l3.835,3.306,5.818-11.372Z" fill="#fff"/>
      <path id="Path_149" data-name="Path 149" d="M1243.283,452.288a.793.793,0,0,1-.518-.192l-3.835-3.306a.794.794,0,0,1,.01-1.21l9.652-8.066a.793.793,0,0,1,1.215.97l-5.818,11.372a.793.793,0,0,1-.554.417A.778.778,0,0,1,1243.283,452.288Zm-2.609-4.09,2.363,2.037,3.583-7Z" fill="#262626"/>
    </g>
  </g>
</svg>
