<svg xmlns="http://www.w3.org/2000/svg" width="22.85" height="29.319" viewBox="0 0 22.85 29.319">
  <g id="main-icon" transform="translate(-385.658 -691.357)">
    <path id="Path_77" data-name="Path 77" d="M390.046,720.032h-2.185a1.559,1.559,0,0,1-1.56-1.56V709a2.28,2.28,0,0,1,2.28-2.28h.744a2.28,2.28,0,0,1,2.281,2.28v9.468A1.56,1.56,0,0,1,390.046,720.032Z" fill="#00afd0" stroke="#767777" stroke-linecap="round" stroke-linejoin="round" stroke-width="1.287"/>
    <path id="Path_78" data-name="Path 78" d="M390.234,692h-2.562a.7.7,0,0,0-.727.679v3.206a1.4,1.4,0,0,0,.8,1.245l.414.207v9.387h1.591v-9.387l.414-.207a1.4,1.4,0,0,0,.8-1.245v-3.206A.7.7,0,0,0,390.234,692Z" fill="none" stroke="#767777" stroke-linecap="round" stroke-linejoin="round" stroke-width="1.287"/>
    <path id="Path_79" data-name="Path 79" d="M407.864,697.734a5.691,5.691,0,0,0-3.113-5.075.438.438,0,0,0-.635.391v3.532a1.09,1.09,0,0,1-1.091,1.091h-1.7a1.09,1.09,0,0,1-1.091-1.091V693.05a.438.438,0,0,0-.635-.391,5.692,5.692,0,0,0,.383,10.326v15.661a1.387,1.387,0,0,0,1.387,1.386h1.616a1.387,1.387,0,0,0,1.386-1.386V702.985A5.691,5.691,0,0,0,407.864,697.734Z" fill="none" stroke="#767777" stroke-linecap="round" stroke-linejoin="round" stroke-width="1.287"/>
  </g>
</svg>
