<svg xmlns="http://www.w3.org/2000/svg" width="49.16" height="50.529" viewBox="0 0 49.16 50.529">
  <path id="man-icon" d="M1093.965,827.332c-.1-2.268-4.531-3.1-5.428-3.249l-.135-.034-7.651-2.187a.917.917,0,0,0-.225-.133c-.131-.091-3.047-2.115-3.166-2.2a1.742,1.742,0,0,0-.695-.607.9.9,0,0,0-.252-.247c-.013-.233-.033-.476-.033-.678,0-.32.011-.574.021-.745.382-.38,1.373-1.376,1.879-1.958a10.309,10.309,0,0,0,1.188-3.482,1.169,1.169,0,0,0,.24-.03,2.142,2.142,0,0,0,1.351-1.559,3.948,3.948,0,0,1,.415-.811,5.481,5.481,0,0,0,.962-3.141c0-.087,0-.175-.005-.266a2.343,2.343,0,0,0-.706-1.824,1.4,1.4,0,0,0-.42-.228,18.682,18.682,0,0,0,.155-1.873l.106-.072c.4-.275.194-3.707.194-5.363s-.349-3.825-4-5.9a13.9,13.9,0,0,0-13.419,0c-3.647,2.073-3.995,4.243-3.995,5.9s-.2,5.088.194,5.363h0a19.679,19.679,0,0,0,.213,1.968,1.374,1.374,0,0,0-.387.217,2.324,2.324,0,0,0-.691,1.812c0,.091-.006.179-.006.266a5.477,5.477,0,0,0,.962,3.14,3.97,3.97,0,0,1,.416.812,2.142,2.142,0,0,0,1.351,1.559,1.162,1.162,0,0,0,.24.03,10.309,10.309,0,0,0,1.187,3.482c.506.581,1.5,1.578,1.879,1.958.01.171.022.426.022.745,0,.2-.02.446-.034.68a.916.916,0,0,0-.188.183.627.627,0,0,0-.049.055,1.737,1.737,0,0,0-.718.626l-3.1,2.168a.934.934,0,0,0-.327.2l-5,1.523-2.787.662a12.467,12.467,0,0,0-4.286,1.527c.011-.008.024-.005.035-.012-.15.085-.4.243-.865.547a.6.6,0,0,0-.269.423l-1.665,12.273a.717.717,0,0,0-.005.08.6.6,0,0,0,.6.6h47.961a.6.6,0,0,0,.593-.686Zm-22.9-29.783c.1,0,3.986-.051,8.553,3.344,0,0-1.968,2.062-2.875,1.656a10.088,10.088,0,0,0-11.357,0c-.906.406-2.875-1.656-2.875-1.656C1067.078,797.5,1070.968,797.547,1071.064,797.549Zm3.846,17.648a.529.529,0,0,0-.155.329c0,.025-.037.407-.037.943a4.739,4.739,0,0,1-7.326,0c0-.536-.035-.918-.037-.943a.537.537,0,0,0-.155-.329c-.013-.012-1.234-1.221-1.758-1.823a11.271,11.271,0,0,1-.925-3.177.532.532,0,0,0-.361-.392.564.564,0,0,0-.539.11l-.014.012a1.172,1.172,0,0,1-.414-.674,4.332,4.332,0,0,0-.474-.954,3.855,3.855,0,0,1-.7-2.434c.023-.614.177-.787.224-.825.017-.013.068-.055.211-.032a.53.53,0,0,0,.617-.525.519.519,0,0,0-.013-.118c0-.011-.058-.279-.121-.711.016.015,1.242,1.25,2.143.864s3.405-1.856,5.976-1.856,5.069,1.467,5.975,1.856c.794.34,1.84-.577,2.09-.812-.052.417-.1.67-.1.677a.533.533,0,0,0,.621.629c.155-.03.209.013.226.027.047.037.2.208.226.826a3.843,3.843,0,0,1-.7,2.434,4.419,4.419,0,0,0-.474.954c-.15.482-.374.659-.439.669a.556.556,0,0,0-.534-.114.518.518,0,0,0-.353.389,11.22,11.22,0,0,1-.927,3.177C1076.143,813.975,1074.922,815.185,1074.91,815.2Zm12.077,21.509h-9v-2.2h9Z" transform="translate(-1046.475 -789)" fill="#00afd0"/>
</svg>
