<svg xmlns="http://www.w3.org/2000/svg" width="48.419" height="42.792" viewBox="0 0 48.419 42.792">
  <g id="risk-icon" transform="translate(-1238.016 -984.587)">
    <path id="Path_111" data-name="Path 111" d="M1285.94,1007.848l-11.472-11.471a1.691,1.691,0,0,0-1.194-.494h-4.051l-9.354-9.358a1.682,1.682,0,0,0-.549-.366l-3.484-1.443a1.682,1.682,0,0,0-.646-.129h-9.852a1.689,1.689,0,0,0-1.689,1.689V991.2a1.69,1.69,0,0,0,1.689,1.69l7.476,0,2.862,1.186,7.664,7.663c-.018,1.005-.051,2.783-.064,3.468l-2.767,2.924a1.69,1.69,0,0,0,.033,2.356s10.072,10.069,10.978,10.976v4.226a1.689,1.689,0,0,0,1.689,1.689h11.538a1.69,1.69,0,0,0,1.689-1.689v-16.648A1.689,1.689,0,0,0,1285.94,1007.848Zm-20.5-8.784-7.613-7.613a1.673,1.673,0,0,0-.547-.367l-3.483-1.442a1.69,1.69,0,0,0-.647-.129l-6.122,0v-1.549h7.828l2.862,1.185,8.817,8.818Z" fill="#00afd0"/>
    <path id="Path_112" data-name="Path 112" d="M1246.927,1005.289l-2.822-7.357a1.688,1.688,0,0,0-3.153,0l-2.824,7.357a1.663,1.663,0,0,0-.112.6,4.511,4.511,0,1,0,9.023,0A1.673,1.673,0,0,0,1246.927,1005.289Z" fill="#00afd0"/>
  </g>
</svg>
