<svg xmlns="http://www.w3.org/2000/svg" width="21.238" height="22.572" viewBox="0 0 21.238 22.572">
  <g id="salary-icon" transform="translate(-389.833 -2031.428)">
    <g id="Group_28" data-name="Group 28">
      <path id="Path_87" data-name="Path 87" d="M408.757,2043.742c-.015-.155-.411-1.124-.528-1.41a5.406,5.406,0,0,0-2.236-2.852,10.4,10.4,0,0,0-5.439-1.287l-.1.007-.1-.007a10.335,10.335,0,0,0-5.44,1.287,5.41,5.41,0,0,0-2.235,2.851,15,15,0,0,0-.528,1.411c-.5.475-3.521,2.99-1.779,6.7,1.294,2.758,6.9,3.558,10.084,3.558s8.79-.8,10.084-3.558C412.277,2046.732,409.253,2044.217,408.757,2043.742Z" fill="#231815"/>
    </g>
    <path id="Path_88" data-name="Path 88" d="M403.45,2034.825a1.9,1.9,0,1,0-2.664-.332c-.112,0-.22-.01-.334-.01-.264,0-.521.009-.774.023a2.857,2.857,0,0,1,.231-2.774,1.9,1.9,0,0,0-2.25,3.049c-6.7,1.48-8.2,8.06-7.133,7.944.852-.092.544-2.609,3.539-4.55a14.071,14.071,0,0,1,12.774,0c3,1.941,2.687,4.458,3.538,4.55C411.436,2042.84,409.976,2036.392,403.45,2034.825Z" fill="#231815"/>
  </g>
</svg>
